<svg width="128" height="128" viewBox="0 0 128 128" xmlns="http://www.w3.org/2000/svg">
  <circle cx="64" cy="64" r="60" fill="#2d5a3d"/>
  <path d="M 64 24 A 40 40 0 0 1 64 104 M 64 28 L 64 20 M 56 26 L 60 20 M 72 26 L 68 20" 
        stroke="#66bb6a" stroke-width="6" fill="none" stroke-linecap="round"/>
  <path d="M 64 104 A 40 40 0 0 1 24 64 M 24 64 L 16 64 M 26 72 L 20 68 M 26 56 L 20 60" 
        stroke="#66bb6a" stroke-width="6" fill="none" stroke-linecap="round"/>
  <path d="M 24 64 A 40 40 0 0 1 64 24 M 64 24 L 64 16 M 56 22 L 60 16 M 72 22 L 68 16" 
        stroke="#66bb6a" stroke-width="6" fill="none" stroke-linecap="round"/>
</svg>
